# xmcd CD database file
#
# Track frame offsets:
#	150
#	29002
#	61267
#	86242
#	108187
#	128714
#	153344
#	180089
#	210591
#	248413
#	285253
#	329945
#
# Disc length: 4726 seconds
#
# Revision: 0
# Processed by: cddbd v1.5.2PL0 Copyright (c) Steve Scherf et al.
# Submitted via: ACXtractor (MTCDDB.DLL V2003.07.15)
#
DISCID=9d12740c
DTITLE=Crimson Blues - Live at Higher Power - Disc 2
DYEAR=2014
DGENRE=Blues
TTITLE0=Nothin' But The Blood
TTITLE1=Sunday's Coming
TTITLE2=You're Gonna Need Somebody On Your Bond
TTITLE3=Without The Lord
TTITLE4=Child Of The King
TTITLE5=Gotta Serve Somebody
TTITLE6=Ain't No Grave
TTITLE7=Sanctified Boogie Blues
TTITLE8=Went Down To The Crossroad
TTITLE9=Spirit In The Sky
TTITLE10=Long Time Coming
TTITLE11=This Little Light
EXTD=ID3G:   0 YEAR: 2014
EXTT0=
EXTT1=
EXTT2=
EXTT3=
EXTT4=
EXTT5=
EXTT6=
EXTT7=
EXTT8=
EXTT9=
EXTT10=
EXTT11=
PLAYORDER=
